HIERARCHY
ROOT Hips
{
  OFFSET 5.80788e-005 67.184 3.4734
  CHANNELS 6 Xposition Yposition Zposition Zrotation Xrotation Yrotation
  JOINT Chest
  {
    OFFSET 0 8.7983 -4.7612
    CHANNELS 3 Zrotation Xrotation Yrotation
    JOINT Chest2
    {
      OFFSET 0 8.0291 0.4195
      CHANNELS 3 Zrotation Xrotation Yrotation
      JOINT Chest3
      {
        OFFSET 0 9.9351 -2.2114
        CHANNELS 3 Zrotation Xrotation Yrotation
        JOINT Neck
        {
          OFFSET 0 22.3885 -0.4656
          CHANNELS 3 Zrotation Xrotation Yrotation
          JOINT Head
          {
            OFFSET -0.0001 12.643 3.4389
            CHANNELS 3 Zrotation Xrotation Yrotation
            End Site
            {
              OFFSET 0.0001 17.6655 0.5274
            }
          }
        }
        JOINT LeftCollar
        {
          OFFSET 2.2603 21.606 7.4023
          CHANNELS 3 Zrotation Xrotation Yrotation
          JOINT LeftShoulder
          {
            OFFSET 13.5163 -1.1332 -5.0146
            CHANNELS 3 Zrotation Xrotation Yrotation
            JOINT LeftElbow
            {
              OFFSET -0.0995 -28.05 -0.2431
              CHANNELS 3 Zrotation Xrotation Yrotation
              JOINT LeftWrist
              {
                OFFSET 0.0679 -23.3996 -0.1402
                CHANNELS 3 Zrotation Xrotation Yrotation
                JOINT LeftFinger1
                {
                  OFFSET 0.7932 -9.069 2.5189
                  CHANNELS 3 Zrotation Xrotation Yrotation
                  JOINT LeftFinger11
                  {
                    OFFSET -0.8272 -3.3923 0.5977
                    CHANNELS 3 Zrotation Xrotation Yrotation
                    JOINT LeftFinger12
                    {
                      OFFSET -0.5649 -2.3158 0.4082
                      CHANNELS 3 Zrotation Xrotation Yrotation
                      End Site
                      {
                        OFFSET -0.4919 -1.6479 0.2673
                      }
                    }
                  }
                }
                JOINT LeftFinger2
                {
                  OFFSET 0.9159 -9.2044 0.2193
                  CHANNELS 3 Zrotation Xrotation Yrotation
                  JOINT LeftFinger21
                  {
                    OFFSET 0.0117 -4.1944 -0.0248
                    CHANNELS 3 Zrotation Xrotation Yrotation
                    JOINT LeftFinger22
                    {
                      OFFSET 0.0071 -2.3249 -0.0142
                      CHANNELS 3 Zrotation Xrotation Yrotation
                      End Site
                      {
                        OFFSET -0.1475 -2.0882 0.0028
                      }
                    }
                  }
                }
                JOINT LeftFinger3
                {
                  OFFSET 0.6113 -8.7231 -2.0637
                  CHANNELS 3 Zrotation Xrotation Yrotation
                  JOINT LeftFinger31
                  {
                    OFFSET -0.1927 -3.8059 -0.2383
                    CHANNELS 3 Zrotation Xrotation Yrotation
                    JOINT LeftFinger32
                    {
                      OFFSET -0.1091 -2.1688 -0.1362
                      CHANNELS 3 Zrotation Xrotation Yrotation
                      End Site
                      {
                        OFFSET -0.2358 -1.9176 -0.0906
                      }
                    }
                  }
                }
                JOINT LeftFinger4
                {
                  OFFSET -0.6151 -8.0947 -3.5641
                  CHANNELS 3 Zrotation Xrotation Yrotation
                  JOINT LeftFinger41
                  {
                    OFFSET -0.4882 -2.341 -0.6462
                    CHANNELS 3 Zrotation Xrotation Yrotation
                    JOINT LeftFinger42
                    {
                      OFFSET -0.3575 -1.7167 -0.4742
                      CHANNELS 3 Zrotation Xrotation Yrotation
                      End Site
                      {
                        OFFSET -0.4187 -1.5237 -0.3496
                      }
                    }
                  }
                }
                JOINT LeftFinger0
                {
                  OFFSET -1.42 -1.8761 1.4223
                  CHANNELS 3 Zrotation Xrotation Yrotation
                  JOINT LeftFinger01
                  {
                    OFFSET -1.1471 -3.4929 2.6334
                    CHANNELS 3 Zrotation Xrotation Yrotation
                    JOINT LeftFinger02
                    {
                      OFFSET -0.823 -2.3 1.6571
                      CHANNELS 3 Zrotation Xrotation Yrotation
                      End Site
                      {
                        OFFSET -0.5822 -1.6914 1.1582
                      }
                    }
                  }
                }
              }
            }
          }
        }
        JOINT RightCollar
        {
          OFFSET -2.2603 21.606 7.4023
          CHANNELS 3 Zrotation Xrotation Yrotation
          JOINT RightShoulder
          {
            OFFSET -13.5187 -1.1334 -5.0155
            CHANNELS 3 Zrotation Xrotation Yrotation
            JOINT RightElbow
            {
              OFFSET 0.0994 -28.0499 -0.2431
              CHANNELS 3 Zrotation Xrotation Yrotation
              JOINT RightWrist
              {
                OFFSET -0.0679 -23.3996 -0.1402
                CHANNELS 3 Zrotation Xrotation Yrotation
                JOINT RightFinger1
                {
                  OFFSET -0.7932 -9.0691 2.5189
                  CHANNELS 3 Zrotation Xrotation Yrotation
                  JOINT RightFinger11
                  {
                    OFFSET 0.8272 -3.3923 0.5977
                    CHANNELS 3 Zrotation Xrotation Yrotation
                    JOINT RightFinger12
                    {
                      OFFSET 0.565 -2.3158 0.4082
                      CHANNELS 3 Zrotation Xrotation Yrotation
                      End Site
                      {
                        OFFSET 0.4919 -1.6479 0.2673
                      }
                    }
                  }
                }
                JOINT RightFinger2
                {
                  OFFSET -0.916 -9.2044 0.2193
                  CHANNELS 3 Zrotation Xrotation Yrotation
                  JOINT RightFinger21
                  {
                    OFFSET -0.0117 -4.1944 -0.0248
                    CHANNELS 3 Zrotation Xrotation Yrotation
                    JOINT RightFinger22
                    {
                      OFFSET -0.0071 -2.3249 -0.0142
                      CHANNELS 3 Zrotation Xrotation Yrotation
                      End Site
                      {
                        OFFSET 0.1475 -2.0882 0.0028
                      }
                    }
                  }
                }
                JOINT RightFinger3
                {
                  OFFSET -0.6113 -8.7231 -2.0637
                  CHANNELS 3 Zrotation Xrotation Yrotation
                  JOINT RightFinger31
                  {
                    OFFSET 0.1927 -3.8059 -0.2383
                    CHANNELS 3 Zrotation Xrotation Yrotation
                    JOINT RightFinger32
                    {
                      OFFSET 0.1091 -2.1688 -0.1362
                      CHANNELS 3 Zrotation Xrotation Yrotation
                      End Site
                      {
                        OFFSET 0.2358 -1.9176 -0.0906
                      }
                    }
                  }
                }
                JOINT RightFinger4
                {
                  OFFSET 0.6151 -8.0947 -3.564
                  CHANNELS 3 Zrotation Xrotation Yrotation
                  JOINT RightFinger41
                  {
                    OFFSET 0.4882 -2.341 -0.6462
                    CHANNELS 3 Zrotation Xrotation Yrotation
                    JOINT RightFinger42
                    {
                      OFFSET 0.3574 -1.7166 -0.4742
                      CHANNELS 3 Zrotation Xrotation Yrotation
                      End Site
                      {
                        OFFSET 0.4187 -1.5237 -0.3496
                      }
                    }
                  }
                }
                JOINT RightFinger0
                {
                  OFFSET 1.4199 -1.8761 1.4221
                  CHANNELS 3 Zrotation Xrotation Yrotation
                  JOINT RightFinger01
                  {
                    OFFSET 1.1472 -3.4929 2.6336
                    CHANNELS 3 Zrotation Xrotation Yrotation
                    JOINT RightFinger02
                    {
                      OFFSET 0.8229 -2.3 1.6571
                      CHANNELS 3 Zrotation Xrotation Yrotation
                      End Site
                      {
                        OFFSET 0.5822 -1.6914 1.1582
                      }
                    }
                  }
                }
              }
            }
          }
        }
      }
    }
  }
  JOINT RightHip
  {
    OFFSET -9.412 3.9771 -0.7758
    CHANNELS 3 Zrotation Xrotation Yrotation
    JOINT RightKnee
    {
      OFFSET -0.7531 -40.938 0
      CHANNELS 3 Zrotation Xrotation Yrotation
      JOINT RightAnkle
      {
        OFFSET 0 -40.1986 0
        CHANNELS 3 Zrotation Xrotation Yrotation
        JOINT RightToe
        {
          OFFSET 0 -4.4182 9.239
          CHANNELS 3 Zrotation Xrotation Yrotation
          End Site
          {
            OFFSET 0 0 6.1981
          }
        }
      }
    }
  }
  JOINT LeftHip
  {
    OFFSET 9.4119 3.9773 -0.7758
    CHANNELS 3 Zrotation Xrotation Yrotation
    JOINT LeftKnee
    {
      OFFSET 0.7532 -40.9383 0
      CHANNELS 3 Zrotation Xrotation Yrotation
      JOINT LeftAnkle
      {
        OFFSET 0 -40.1986 0
        CHANNELS 3 Zrotation Xrotation Yrotation
        JOINT LeftToe
        {
          OFFSET 0 -4.4182 9.239
          CHANNELS 3 Zrotation Xrotation Yrotation
          End Site
          {
            OFFSET 0 0 6.1981
          }
        }
      }
    }
  }
}
MOTION
Frames:	4
Frame Time:	0.0333333
5.80788e-005 67.184 3.4734 0 0 -0 0 0 -0 0 0 -0 0 0 -0 0 0 -0 0 0 -0 0 0 -12.5014 88.1196 14.2451 10.6914 -0.00160068 -0.00239207 0.000740045 -8.4365e-005 7.00714e-005 -9.52055e-007 9.93923e-017 -1.98785e-016 -1.59028e-015 9.93923e-017 -5.96354e-016 -1.59028e-015 -9.93923e-017 -5.96354e-016 -1.59028e-015 9.93923e-017 -1.98785e-016 -1.59028e-015 -0.0128176 0.00232552 8.52707e-005 9.93923e-017 5.96354e-016 -0 9.93923e-017 -1.98785e-016 -1.59028e-015 -0.0160551 0.00299681 0.000857156 -2.48481e-016 0 3.18055e-015 9.93923e-017 -1.98785e-016 -1.59028e-015 -0.0125865 0.0031206 0.00282719 0 1.98785e-016 -0 9.93923e-017 -1.98785e-016 -1.59028e-015 9.93923e-017 -5.96354e-016 -1.59028e-015 -9.93923e-017 -5.96354e-016 -1.59028e-015 -0.865644 0.16582 7.03859 -88.0329 10.2057 -10.5567 0.0015593 -0.00248883 -0.000788628 7.87605e-005 4.10553e-005 1.24965e-005 -3.97569e-016 -7.95139e-016 3.18055e-015 -1.98785e-016 -3.97569e-016 3.18055e-015 -1.98785e-016 0 3.18055e-015 -3.97569e-016 -7.95139e-016 3.18055e-015 0.0129473 0.00231697 -8.70038e-005 9.93923e-017 -7.95139e-016 1.59028e-015 -3.97569e-016 -7.95139e-016 3.18055e-015 0.0163314 0.00303369 -0.000872333 3.97569e-016 7.95139e-016 -3.18055e-015 -3.97569e-016 -7.95139e-016 3.18055e-015 0.0145763 0.00367772 -0.00326275 9.93923e-017 -3.97569e-016 -0 -3.97569e-016 -7.95139e-016 3.18055e-015 -1.98785e-016 -3.97569e-016 3.18055e-015 -1.98785e-016 0 3.18055e-015 3.42485 1.36937 -0.0640303 0.000136572 0.69354 0.00145564 -3.42573 -2.06297 -0.0607933 -3.19502e-024 0 -1.48106e-024 -3.42498 1.36123 0.0639712 -6.769e-005 0.712612 -0.0012277 3.42582 -2.07388 0.0612819 2.55305e-023 0 -2.31416e-026 
39.8408 4.20861 27.7326 6.68241e-008 70.997 8.08067e-009 -0.323987 3.80841 -0.0468209 -0.646999 7.61702 -0.0722429 -0.647 7.61701 -0.072243 -4.87314e-006 -24.0062 -7.03754e-007 -0.0600577 -22.3427 -0.0243365 -8.00266 -0.194418 -12.5027 41.0906 -54.0593 46.1146 -162.624 -57.0654 154.779 -6.61578 1.42535 -7.33674 -7.95139e-016 -7.95139e-016 8.19987e-016 -7.95139e-016 -1.19271e-015 4.09993e-015 6.72431e-033 -3.97569e-016 9.69075e-016 -7.95139e-016 -7.95139e-016 8.19987e-016 -0.0128186 0.00231568 7.83685e-005 7.95139e-016 7.95139e-016 -3.42904e-015 -7.95139e-016 -7.95139e-016 8.19987e-016 -0.0160482 0.00299926 0.000859337 -9.20994e-006 -2.29091e-006 -3.84888e-006 -7.95139e-016 -7.95139e-016 8.19987e-016 -0.0126367 0.00313738 0.0028434 7.95139e-016 3.97569e-016 -5.69021e-015 -7.95139e-016 -7.95139e-016 8.19987e-016 -7.95139e-016 -1.19271e-015 4.09993e-015 6.72431e-033 -3.97569e-016 9.69075e-016 7.13351 -0.028764 7.03348 -34.1401 -56.0263 -38.6238 166.972 -56.5747 -151.635 6.45462 1.28473 7.50888 7.95139e-016 1.59028e-015 -1.1281e-014 7.95139e-016 7.95139e-016 -1.11816e-014 1.59028e-015 3.18055e-015 -1.78906e-015 7.95139e-016 1.59028e-015 -1.1281e-014 0.0129575 0.00230325 -8.86261e-005 1.59028e-015 -1.59028e-015 -8.05078e-015 7.95139e-016 1.59028e-015 -1.1281e-014 0.0163013 0.00301283 -0.000861846 -7.95139e-016 -2.38542e-015 1.73937e-015 7.95139e-016 1.59028e-015 -1.1281e-014 0.0146017 0.00368134 -0.00327008 4.09827e-006 3.81085e-007 5.74819e-006 7.95139e-016 1.59028e-015 -1.1281e-014 7.95139e-016 7.95139e-016 -1.11816e-014 1.59028e-015 3.18055e-015 -1.78906e-015 -101.006 -32.4693 -86.5641 176.901 43.3174 177.837 -6.65607 10.2006 -3.35334 -2.1513e-005 8.38421e-006 2.55241e-006 101.001 -32.4747 86.5605 -176.903 43.317 -177.84 6.65382 10.1993 3.35001 1.34423e-006 3.29537e-007 1.0526e-006 
39.8406 4.2075 27.6577 0 70.9971 -0 -0.324289 3.88617 -0.0467898 -0.647633 7.77253 -0.0717221 -0.647633 7.77253 -0.0717219 2.59426e-006 -24.5614 1.86241e-007 -0.0602527 -22.6759 -0.0247633 -7.80946 -0.822323 -12.1051 40.7565 -54.1802 45.8104 -162.624 -57.0654 154.779 -6.58622 1.73076 -7.03893 7.95139e-016 -7.95139e-016 -5.2181e-016 1.59028e-015 -1.19271e-015 -3.70236e-015 7.95139e-016 -3.97569e-016 -6.80837e-015 7.95139e-016 -7.95139e-016 -5.2181e-016 -0.0128159 0.00232014 8.03983e-005 -7.95139e-016 7.95139e-016 3.8763e-015 7.95139e-016 -7.95139e-016 -5.2181e-016 -0.0160584 0.00298595 0.000853358 1.34985e-006 -2.2852e-007 3.33464e-006 7.95139e-016 -7.95139e-016 -5.2181e-016 -0.0126048 0.00312398 0.00282408 2.82391e-006 -3.94492e-007 5.40213e-006 7.95139e-016 -7.95139e-016 -5.2181e-016 1.59028e-015 -1.19271e-015 -3.70236e-015 7.95139e-016 -3.97569e-016 -6.80837e-015 6.96421 -0.661794 6.60796 -33.7601 -56.117 -38.2677 166.972 -56.5748 -151.635 6.44554 1.58943 7.20611 -7.57261e-031 1.43125e-014 3.03147e-015 -7.95139e-016 1.27222e-014 1.2424e-015 -7.95139e-016 1.27222e-014 -8.94531e-016 -7.57261e-031 1.43125e-014 3.03147e-015 0.0129611 0.00231979 -7.58633e-005 -7.1726e-032 1.59028e-015 2.5842e-015 -7.57261e-031 1.43125e-014 3.03147e-015 0.0163287 0.00303404 -0.000871581 7.95139e-016 1.59028e-015 2.03754e-015 -7.57261e-031 1.43125e-014 3.03147e-015 0.0145375 0.00366272 -0.003249 -9.79335e-032 -1.59028e-015 -3.52843e-015 -7.57261e-031 1.43125e-014 3.03147e-015 -7.95139e-016 1.27222e-014 1.2424e-015 -7.95139e-016 1.27222e-014 -8.94531e-016 -101.207 -32.3256 -86.6503 176.901 43.3142 177.84 -6.8551 10.2665 -3.20656 -2.18335e-006 2.38626e-006 -5.56972e-006 101.206 -32.3356 86.6988 -176.903 43.315 -177.843 6.83679 10.2532 3.26906 5.35735e-006 7.87871e-006 9.95485e-006 
39.8404 4.20641 27.5827 -8.79344e-008 70.9971 6.72243e-008 -0.324587 3.96393 -0.0467567 -0.648257 7.92804 -0.0711963 -0.64826 7.92808 -0.0711962 1.16757e-006 -25.1166 7.5307e-008 -0.0604091 -23.0093 -0.0248245 -7.61172 -1.44918 -11.7051 40.4203 -54.3 45.5041 -162.624 -57.0654 154.779 -6.55819 2.0363 -6.74111 -4.18328e-006 9.99752e-006 7.36429e-006 1.59028e-015 -3.97569e-016 -1.66482e-015 2.38542e-015 1.19271e-015 -4.77083e-015 -4.18328e-006 9.99752e-006 7.36429e-006 -0.012831 0.00232989 9.07868e-005 -1.52434e-006 2.08468e-007 -1.63794e-006 -4.18328e-006 9.99752e-006 7.36429e-006 -0.0160317 0.0029843 0.000857251 -1.59028e-015 -7.95139e-016 -5.93869e-015 -4.18328e-006 9.99752e-006 7.36429e-006 -0.0125848 0.00311743 0.00282411 -0 0 1.76421e-015 -4.18328e-006 9.99752e-006 7.36429e-006 1.59028e-015 -3.97569e-016 -1.66482e-015 2.38542e-015 1.19271e-015 -4.77083e-015 6.79004 -1.29388 6.18015 -33.3781 -56.2065 -37.9097 166.972 -56.5748 -151.635 6.43809 1.89429 6.90328 -2.69445e-006 -7.21071e-007 -8.86647e-006 -3.03456e-032 3.97569e-016 4.37326e-015 -7.95139e-016 0 -2.03754e-015 -2.69445e-006 -7.21071e-007 -8.86647e-006 0.0129681 0.00231596 -8.29806e-005 -4.22882e-006 2.21371e-006 -4.13496e-006 -2.69445e-006 -7.21071e-007 -8.86647e-006 0.0163413 0.00305053 -0.000878366 -1.69732e-006 1.66673e-006 1.05809e-007 -2.69445e-006 -7.21071e-007 -8.86647e-006 0.0145874 0.00367888 -0.00326175 -1.59028e-015 7.95139e-016 -1.05853e-014 -2.69445e-006 -7.21071e-007 -8.86647e-006 -3.03456e-032 3.97569e-016 4.37326e-015 -7.95139e-016 0 -2.03754e-015 -101.408 -32.1815 -86.7358 176.901 43.311 177.842 -7.0544 10.3319 -3.05956 3.68764e-006 -3.89319e-008 9.12093e-007 101.41 -32.196 86.8362 -176.903 43.3129 -177.846 7.01996 10.3067 3.18786 2.35131e-006 6.40939e-006 -5.89146e-006 
